<?xml version="1.0" encoding="UTF-8" standalone="no"?>
<svg
   xmlns:dc="http://purl.org/dc/elements/1.1/"
   xmlns:cc="http://creativecommons.org/ns#"
   xmlns:rdf="http://www.w3.org/1999/02/22-rdf-syntax-ns#"
   xmlns:svg="http://www.w3.org/2000/svg"
   xmlns="http://www.w3.org/2000/svg"
   viewBox="0 0 1329.2071 295.70999"
   height="295.70999"
   width="1329.207"
   xml:space="preserve"
   version="1.1"
   id="svg3336"><metadata
     id="metadata3342"><rdf:RDF><cc:Work
         rdf:about=""><dc:format>image/svg+xml</dc:format><dc:type
           rdf:resource="http://purl.org/dc/dcmitype/StillImage" /><dc:title></dc:title></cc:Work></rdf:RDF></metadata><defs
     id="defs3340"><clipPath
       id="clipPath3366"
       clipPathUnits="userSpaceOnUse"><path
         id="path3368"
         d="m 692.363,540.762 184.252,0 0,44.12 -184.252,0 0,-44.12 z" /></clipPath><clipPath
       id="clipPath3424"
       clipPathUnits="userSpaceOnUse"><path
         id="path3426"
         d="m 589.606,301.89 297.638,0 0,231.024 -297.638,0 0,-231.024 z" /></clipPath><clipPath
       id="clipPath3448"
       clipPathUnits="userSpaceOnUse"><path
         id="path3450"
         d="m 743.757,43.915 114.969,0 0,82.504 -114.969,0 0,-82.504 z" /></clipPath><clipPath
       id="clipPath3460"
       clipPathUnits="userSpaceOnUse"><path
         id="path3462"
         d="m 735.355,39.685 142.677,0 0,103.1 -142.677,0 0,-103.1 z" /></clipPath><clipPath
       id="clipPath3576"
       clipPathUnits="userSpaceOnUse"><path
         id="path3578"
         d="m 319.588,32.612 79.38,0 0,34.356 -79.38,0 0,-34.356 z" /></clipPath><clipPath
       id="clipPath3594"
       clipPathUnits="userSpaceOnUse"><path
         id="path3596"
         d="m 524.958,36.33 53.47,0 0,30.632 -53.47,0 0,-30.632 z" /></clipPath><clipPath
       id="clipPath3802"
       clipPathUnits="userSpaceOnUse"><path
         id="path3804"
         d="m 0,0 291.968,0 0,142.785 L 0,142.785 0,0 Z" /></clipPath></defs><g
     transform="matrix(1.25,0,0,-1.25,-907.39663,977.885)"
     id="g3344"><g
       transform="matrix(8,0,0,8,-5081.4211,-3820.18)"
       id="g3362"><g
         clip-path="url(#clipPath3366)"
         id="g3364"><g
           transform="translate(725.9173,574.4441)"
           id="g3370"><path
             id="path3372"
             style="fill:#231f20;fill-opacity:1;fill-rule:nonzero;stroke:none"
             d="m 0,0 0.823,0 0,-4.121 2.245,0 0,-0.75 L 0,-4.871 0,0 Z m 4.47,-4.924 c -0.141,0 -0.271,0.02 -0.392,0.059 -0.121,0.04 -0.225,0.097 -0.313,0.172 -0.088,0.074 -0.157,0.167 -0.207,0.279 -0.051,0.112 -0.076,0.241 -0.076,0.385 0,0.189 0.042,0.362 0.125,0.52 0.084,0.158 0.217,0.298 0.402,0.418 0.184,0.121 0.42,0.225 0.707,0.313 0.288,0.088 0.636,0.154 1.044,0.198 l 0,0.105 c 0,0.175 -0.046,0.303 -0.138,0.382 -0.093,0.079 -0.237,0.118 -0.435,0.118 -0.246,0 -0.466,-0.049 -0.661,-0.148 C 4.33,-2.222 4.158,-2.33 4.009,-2.449 l -0.395,0.507 c 0.189,0.171 0.425,0.319 0.711,0.444 0.285,0.126 0.61,0.188 0.974,0.188 0.233,0 0.429,-0.027 0.589,-0.082 0.16,-0.055 0.29,-0.136 0.389,-0.244 0.098,-0.107 0.17,-0.239 0.213,-0.395 0.044,-0.156 0.066,-0.337 0.066,-0.543 l 0,-1.441 c 0,-0.211 0.008,-0.384 0.023,-0.52 0.016,-0.137 0.041,-0.248 0.076,-0.336 l -0.816,0 C 5.817,-4.797 5.798,-4.729 5.783,-4.667 5.767,-4.606 5.76,-4.525 5.76,-4.424 5.58,-4.608 5.386,-4.737 5.177,-4.812 4.969,-4.887 4.733,-4.924 4.47,-4.924 m 0.296,0.626 c 0.21,0 0.397,0.036 0.559,0.108 0.163,0.073 0.308,0.17 0.435,0.293 l 0,0.77 c -0.487,-0.066 -0.856,-0.159 -1.106,-0.28 -0.25,-0.12 -0.375,-0.277 -0.375,-0.47 0,-0.141 0.044,-0.246 0.131,-0.316 0.088,-0.07 0.207,-0.105 0.356,-0.105 m 2.626,2.922 0.816,0 0,-0.474 c 0.058,0.062 0.127,0.124 0.208,0.188 0.081,0.064 0.174,0.122 0.28,0.174 0.105,0.053 0.223,0.096 0.355,0.129 0.132,0.033 0.277,0.049 0.435,0.049 0.307,0 0.551,-0.089 0.733,-0.267 0.183,-0.177 0.274,-0.439 0.274,-0.786 l 0,-2.508 -0.817,0 0,2.304 c 0,0.377 -0.173,0.566 -0.52,0.566 -0.18,0 -0.345,-0.042 -0.497,-0.125 C 8.508,-2.21 8.358,-2.319 8.208,-2.455 l 0,-2.416 -0.816,0 0,3.495 z m 5.128,-3.548 c -0.197,0 -0.381,0.036 -0.55,0.109 -0.169,0.072 -0.315,0.183 -0.437,0.332 -0.123,0.149 -0.22,0.336 -0.29,0.56 -0.07,0.224 -0.105,0.487 -0.105,0.79 0,0.302 0.036,0.568 0.108,0.796 0.073,0.228 0.174,0.418 0.303,0.57 0.13,0.151 0.286,0.265 0.471,0.342 0.184,0.077 0.388,0.115 0.612,0.115 0.189,0 0.371,-0.037 0.546,-0.112 0.176,-0.074 0.327,-0.184 0.455,-0.329 l 0,1.751 0.809,0 0,-4.015 c 0,-0.211 0.008,-0.384 0.023,-0.52 0.016,-0.137 0.043,-0.248 0.083,-0.336 l -0.837,0 c -0.021,0.048 -0.04,0.117 -0.055,0.207 -0.016,0.09 -0.023,0.179 -0.023,0.267 -0.128,-0.149 -0.279,-0.275 -0.455,-0.375 -0.175,-0.101 -0.395,-0.152 -0.658,-0.152 m 0.263,0.665 c 0.167,0 0.326,0.045 0.478,0.135 0.151,0.09 0.275,0.192 0.372,0.306 l 0,1.402 c -0.11,0.141 -0.239,0.248 -0.386,0.323 -0.147,0.074 -0.293,0.112 -0.437,0.112 -0.308,0 -0.528,-0.098 -0.662,-0.293 -0.134,-0.196 -0.201,-0.489 -0.201,-0.879 0,-0.373 0.074,-0.651 0.221,-0.833 0.147,-0.182 0.352,-0.273 0.615,-0.273 m 4.022,-0.685 c -0.219,0 -0.43,0.034 -0.632,0.102 -0.202,0.068 -0.38,0.176 -0.536,0.323 -0.156,0.147 -0.281,0.336 -0.375,0.566 -0.095,0.231 -0.142,0.506 -0.142,0.826 0,0.334 0.053,0.616 0.158,0.846 0.105,0.231 0.239,0.418 0.402,0.563 0.162,0.145 0.342,0.249 0.539,0.313 0.198,0.063 0.387,0.095 0.567,0.095 0.197,0 0.388,-0.032 0.572,-0.095 0.185,-0.064 0.348,-0.169 0.491,-0.316 0.142,-0.147 0.256,-0.342 0.342,-0.583 0.086,-0.241 0.128,-0.54 0.128,-0.895 l 0,-0.191 -2.389,0 c 0.017,-0.316 0.113,-0.546 0.286,-0.691 0.173,-0.145 0.39,-0.217 0.649,-0.217 0.228,0 0.415,0.036 0.562,0.108 0.147,0.073 0.287,0.172 0.418,0.3 l 0.428,-0.422 c -0.184,-0.202 -0.396,-0.357 -0.635,-0.467 -0.239,-0.11 -0.517,-0.165 -0.833,-0.165 m 0.77,2.16 c -0.048,0.544 -0.313,0.816 -0.796,0.816 -0.097,0 -0.191,-0.014 -0.283,-0.043 -0.092,-0.029 -0.177,-0.076 -0.254,-0.142 -0.076,-0.065 -0.14,-0.15 -0.19,-0.253 -0.051,-0.103 -0.087,-0.229 -0.109,-0.378 l 1.632,0 z m 2.633,-2.16 c -0.324,0 -0.623,0.052 -0.895,0.155 -0.272,0.103 -0.487,0.236 -0.645,0.398 l 0.441,0.494 c 0.132,-0.114 0.292,-0.212 0.481,-0.293 0.188,-0.081 0.395,-0.122 0.618,-0.122 0.22,0 0.391,0.031 0.514,0.092 0.123,0.062 0.184,0.165 0.184,0.31 0,0.07 -0.021,0.129 -0.062,0.178 -0.042,0.048 -0.098,0.09 -0.168,0.125 -0.07,0.035 -0.153,0.064 -0.247,0.089 -0.094,0.024 -0.194,0.049 -0.3,0.075 -0.149,0.035 -0.301,0.075 -0.457,0.119 -0.156,0.044 -0.297,0.105 -0.425,0.184 -0.127,0.079 -0.231,0.182 -0.312,0.309 -0.082,0.128 -0.122,0.292 -0.122,0.494 0,0.154 0.032,0.293 0.095,0.418 0.064,0.125 0.153,0.233 0.267,0.323 0.114,0.09 0.25,0.16 0.408,0.21 0.158,0.051 0.334,0.076 0.527,0.076 0.333,0 0.611,-0.044 0.832,-0.132 0.222,-0.087 0.423,-0.208 0.603,-0.362 L 21.156,-2.33 c -0.065,0.052 -0.139,0.102 -0.22,0.148 -0.081,0.046 -0.166,0.086 -0.254,0.122 -0.087,0.035 -0.175,0.062 -0.263,0.082 -0.088,0.02 -0.171,0.03 -0.25,0.03 -0.224,0 -0.379,-0.034 -0.464,-0.102 -0.086,-0.069 -0.129,-0.153 -0.129,-0.254 0,-0.07 0.021,-0.129 0.063,-0.178 0.042,-0.048 0.097,-0.09 0.165,-0.125 0.068,-0.035 0.148,-0.065 0.24,-0.089 0.092,-0.024 0.191,-0.047 0.296,-0.069 0.149,-0.03 0.303,-0.068 0.461,-0.112 0.158,-0.044 0.301,-0.104 0.428,-0.181 0.127,-0.076 0.232,-0.178 0.316,-0.306 0.083,-0.127 0.125,-0.294 0.125,-0.5 0,-0.184 -0.039,-0.345 -0.115,-0.481 -0.077,-0.136 -0.183,-0.248 -0.316,-0.335 -0.134,-0.088 -0.29,-0.154 -0.468,-0.198 -0.177,-0.044 -0.365,-0.066 -0.563,-0.066 m 3.943,0.02 c -0.188,0 -0.37,0.037 -0.546,0.112 -0.176,0.075 -0.327,0.184 -0.454,0.329 l 0,-0.388 -0.81,0 0,4.871 0.81,0 0,-1.837 c 0.114,0.141 0.262,0.264 0.444,0.369 0.182,0.105 0.405,0.158 0.668,0.158 0.198,0 0.381,-0.037 0.55,-0.112 0.169,-0.074 0.315,-0.187 0.438,-0.339 0.123,-0.151 0.219,-0.34 0.289,-0.566 0.071,-0.226 0.106,-0.49 0.106,-0.793 0,-0.303 -0.037,-0.567 -0.109,-0.793 -0.072,-0.226 -0.173,-0.414 -0.303,-0.563 -0.129,-0.149 -0.286,-0.261 -0.47,-0.336 -0.185,-0.075 -0.389,-0.112 -0.613,-0.112 m -0.177,0.645 c 0.307,0 0.527,0.095 0.661,0.283 0.134,0.189 0.201,0.479 0.201,0.869 0,0.373 -0.074,0.654 -0.221,0.843 -0.147,0.188 -0.352,0.283 -0.615,0.283 -0.167,0 -0.326,-0.045 -0.477,-0.135 -0.152,-0.09 -0.276,-0.192 -0.372,-0.306 l 0,-1.402 c 0.11,-0.141 0.238,-0.248 0.385,-0.323 0.147,-0.074 0.293,-0.112 0.438,-0.112 m 3.844,-0.665 c -0.22,0 -0.43,0.034 -0.632,0.102 -0.202,0.068 -0.381,0.176 -0.537,0.323 -0.155,0.147 -0.28,0.336 -0.375,0.566 -0.094,0.231 -0.141,0.506 -0.141,0.826 0,0.334 0.052,0.616 0.158,0.846 0.105,0.231 0.239,0.418 0.401,0.563 0.163,0.145 0.343,0.249 0.54,0.313 0.198,0.063 0.386,0.095 0.566,0.095 0.198,0 0.389,-0.032 0.573,-0.095 0.184,-0.064 0.348,-0.169 0.49,-0.316 0.143,-0.147 0.257,-0.342 0.343,-0.583 0.085,-0.241 0.128,-0.54 0.128,-0.895 l 0,-0.191 -2.39,0 c 0.018,-0.316 0.113,-0.546 0.287,-0.691 0.173,-0.145 0.389,-0.217 0.648,-0.217 0.228,0 0.416,0.036 0.563,0.108 0.147,0.073 0.286,0.172 0.418,0.3 l 0.428,-0.422 c -0.184,-0.202 -0.396,-0.357 -0.635,-0.467 -0.24,-0.11 -0.517,-0.165 -0.833,-0.165 m 0.77,2.16 c -0.048,0.544 -0.314,0.816 -0.796,0.816 -0.097,0 -0.191,-0.014 -0.284,-0.043 -0.092,-0.029 -0.176,-0.076 -0.253,-0.142 -0.077,-0.065 -0.14,-0.15 -0.191,-0.253 -0.05,-0.103 -0.087,-0.229 -0.108,-0.378 l 1.632,0 z m 2.778,-2.133 c -0.224,0 -0.406,0.021 -0.546,0.062 -0.141,0.042 -0.251,0.102 -0.33,0.181 -0.079,0.079 -0.132,0.179 -0.161,0.3 -0.028,0.12 -0.043,0.26 -0.043,0.418 l 0,1.935 -0.605,0 0,0.645 0.605,0 0,1.218 0.81,0 0,-1.218 0.902,0 0,-0.645 -0.902,0 0,-1.731 c 0,-0.189 0.035,-0.324 0.105,-0.405 0.07,-0.081 0.207,-0.122 0.408,-0.122 0.062,0 0.125,0.005 0.191,0.013 0.066,0.009 0.119,0.02 0.158,0.033 l 0,-0.638 c -0.022,-0.005 -0.055,-0.01 -0.098,-0.017 -0.044,-0.006 -0.095,-0.012 -0.152,-0.016 -0.057,-0.005 -0.115,-0.008 -0.174,-0.01 -0.06,-0.002 -0.115,-0.003 -0.168,-0.003 m 1.264,3.541 0.809,0 0,-0.572 0.013,0 c 0.11,0.175 0.264,0.325 0.461,0.45 0.198,0.126 0.463,0.188 0.797,0.188 l 0.052,0 -0.026,-0.744 c -0.022,0.005 -0.058,0.008 -0.108,0.01 -0.051,0.002 -0.087,0.003 -0.109,0.003 -0.263,0 -0.481,-0.056 -0.652,-0.167 -0.171,-0.112 -0.314,-0.263 -0.428,-0.451 l 0,-2.212 -0.809,0 0,3.495 z m 2.705,1.31 0.829,0 0,-0.704 -0.829,0 0,0.704 z m 0.007,-1.31 0.816,0 0,-3.495 -0.816,0 0,3.495 z m 3.212,-3.568 c -0.22,0 -0.43,0.034 -0.632,0.102 -0.202,0.068 -0.381,0.176 -0.537,0.323 -0.155,0.147 -0.28,0.336 -0.375,0.566 -0.094,0.231 -0.141,0.506 -0.141,0.826 0,0.334 0.052,0.616 0.158,0.846 0.105,0.231 0.239,0.418 0.401,0.563 0.163,0.145 0.343,0.249 0.54,0.313 0.197,0.063 0.386,0.095 0.566,0.095 0.198,0 0.388,-0.032 0.573,-0.095 0.184,-0.064 0.348,-0.169 0.49,-0.316 0.143,-0.147 0.257,-0.342 0.343,-0.583 0.085,-0.241 0.128,-0.54 0.128,-0.895 l 0,-0.191 -2.39,0 c 0.018,-0.316 0.113,-0.546 0.287,-0.691 0.173,-0.145 0.389,-0.217 0.648,-0.217 0.228,0 0.416,0.036 0.563,0.108 0.147,0.073 0.286,0.172 0.418,0.3 l 0.428,-0.422 c -0.184,-0.202 -0.396,-0.357 -0.635,-0.467 -0.24,-0.11 -0.517,-0.165 -0.833,-0.165 m 0.77,2.16 c -0.048,0.544 -0.314,0.816 -0.796,0.816 -0.097,0 -0.191,-0.014 -0.284,-0.043 -0.092,-0.029 -0.176,-0.076 -0.253,-0.142 -0.077,-0.065 -0.14,-0.15 -0.191,-0.253 -0.05,-0.103 -0.087,-0.229 -0.108,-0.378 l 1.632,0 z m 3.232,-2.14 c -0.189,0 -0.371,0.037 -0.546,0.112 -0.176,0.075 -0.327,0.184 -0.455,0.329 l 0,-0.388 -0.809,0 0,4.871 0.809,0 0,-1.837 c 0.115,0.141 0.263,0.264 0.445,0.369 0.182,0.105 0.405,0.158 0.668,0.158 0.197,0 0.381,-0.037 0.55,-0.112 0.169,-0.074 0.314,-0.187 0.437,-0.339 0.123,-0.151 0.22,-0.34 0.29,-0.566 0.07,-0.226 0.105,-0.49 0.105,-0.793 0,-0.303 -0.036,-0.567 -0.108,-0.793 -0.073,-0.226 -0.174,-0.414 -0.303,-0.563 -0.13,-0.149 -0.286,-0.261 -0.471,-0.336 -0.184,-0.075 -0.388,-0.112 -0.612,-0.112 m -0.178,0.645 c 0.307,0 0.528,0.095 0.662,0.283 0.134,0.189 0.201,0.479 0.201,0.869 0,0.373 -0.074,0.654 -0.221,0.843 -0.147,0.188 -0.352,0.283 -0.615,0.283 -0.167,0 -0.326,-0.045 -0.478,-0.135 -0.151,-0.09 -0.275,-0.192 -0.372,-0.306 l 0,-1.402 c 0.11,-0.141 0.239,-0.248 0.386,-0.323 0.147,-0.074 0.292,-0.112 0.437,-0.112 M 46.29,0 l 0.829,0 0.619,-2.521 c 0.048,-0.198 0.094,-0.387 0.138,-0.57 0.044,-0.182 0.084,-0.369 0.119,-0.562 l 0.013,0 c 0.035,0.188 0.073,0.374 0.115,0.556 0.042,0.182 0.087,0.372 0.135,0.569 L 48.844,0 l 0.79,0 0.606,-2.541 c 0.026,-0.105 0.051,-0.203 0.075,-0.293 0.024,-0.09 0.046,-0.179 0.066,-0.266 0.02,-0.088 0.04,-0.177 0.059,-0.267 0.02,-0.09 0.039,-0.185 0.056,-0.286 l 0.013,0 c 0.018,0.105 0.035,0.201 0.053,0.289 0.018,0.088 0.036,0.175 0.056,0.26 0.02,0.086 0.041,0.171 0.062,0.257 0.022,0.086 0.044,0.181 0.066,0.286 L 51.352,0 l 0.77,0 -1.283,-4.871 -0.718,0 -0.876,3.732 -0.013,0 -0.921,-3.732 -0.724,0 L 46.29,0 Z m 6.879,-4.924 c -0.141,0 -0.271,0.02 -0.392,0.059 -0.121,0.04 -0.225,0.097 -0.313,0.172 -0.087,0.074 -0.157,0.167 -0.207,0.279 -0.05,0.112 -0.076,0.241 -0.076,0.385 0,0.189 0.042,0.362 0.125,0.52 0.084,0.158 0.218,0.298 0.402,0.418 0.184,0.121 0.42,0.225 0.708,0.313 0.287,0.088 0.635,0.154 1.043,0.198 l 0,0.105 c 0,0.175 -0.046,0.303 -0.138,0.382 -0.092,0.079 -0.237,0.118 -0.435,0.118 -0.246,0 -0.466,-0.049 -0.661,-0.148 -0.196,-0.099 -0.368,-0.207 -0.517,-0.326 l -0.395,0.507 c 0.189,0.171 0.426,0.319 0.711,0.444 0.285,0.126 0.61,0.188 0.974,0.188 0.233,0 0.429,-0.027 0.589,-0.082 0.16,-0.055 0.29,-0.136 0.389,-0.244 0.098,-0.107 0.17,-0.239 0.214,-0.395 0.044,-0.156 0.065,-0.337 0.065,-0.543 l 0,-1.441 c 0,-0.211 0.008,-0.384 0.023,-0.52 0.016,-0.137 0.041,-0.248 0.076,-0.336 l -0.816,0 c -0.022,0.074 -0.041,0.142 -0.056,0.204 -0.015,0.061 -0.023,0.142 -0.023,0.243 -0.18,-0.184 -0.374,-0.313 -0.583,-0.388 -0.208,-0.075 -0.444,-0.112 -0.707,-0.112 m 0.296,0.626 c 0.211,0 0.397,0.036 0.559,0.108 0.163,0.073 0.308,0.17 0.435,0.293 l 0,0.77 c -0.487,-0.066 -0.856,-0.159 -1.106,-0.28 -0.25,-0.12 -0.375,-0.277 -0.375,-0.47 0,-0.141 0.044,-0.246 0.131,-0.316 0.088,-0.07 0.207,-0.105 0.356,-0.105 M 56.124,0 l 0.816,0 0,-4.871 -0.816,0 0,4.871 z m 2.916,-4.924 c -0.197,0 -0.38,0.036 -0.549,0.109 -0.169,0.072 -0.315,0.183 -0.438,0.332 -0.123,0.149 -0.22,0.336 -0.29,0.56 -0.07,0.224 -0.105,0.487 -0.105,0.79 0,0.302 0.036,0.568 0.108,0.796 0.073,0.228 0.174,0.418 0.303,0.57 0.13,0.151 0.287,0.265 0.471,0.342 0.184,0.077 0.388,0.115 0.612,0.115 0.189,0 0.371,-0.037 0.547,-0.112 0.175,-0.074 0.327,-0.184 0.454,-0.329 l 0,1.751 0.809,0 0,-4.015 c 0,-0.211 0.008,-0.384 0.023,-0.52 0.016,-0.137 0.043,-0.248 0.083,-0.336 l -0.836,0 c -0.022,0.048 -0.041,0.117 -0.056,0.207 -0.016,0.09 -0.023,0.179 -0.023,0.267 -0.127,-0.149 -0.279,-0.275 -0.454,-0.375 -0.176,-0.101 -0.395,-0.152 -0.659,-0.152 m 0.264,0.665 c 0.166,0 0.325,0.045 0.477,0.135 0.151,0.09 0.275,0.192 0.372,0.306 l 0,1.402 c -0.11,0.141 -0.238,0.248 -0.385,0.323 -0.147,0.074 -0.293,0.112 -0.438,0.112 -0.307,0 -0.528,-0.098 -0.662,-0.293 -0.134,-0.196 -0.2,-0.489 -0.2,-0.879 0,-0.373 0.073,-0.651 0.22,-0.833 0.147,-0.182 0.352,-0.273 0.616,-0.273 m 5.517,-0.678 c -0.307,0 -0.552,0.089 -0.734,0.267 -0.182,0.177 -0.273,0.44 -0.273,0.786 l 0,2.508 0.816,0 0,-2.317 c 0,-0.377 0.174,-0.566 0.52,-0.566 0.18,0 0.346,0.042 0.497,0.125 0.152,0.083 0.302,0.193 0.451,0.329 l 0,2.429 0.817,0 0,-3.495 -0.817,0 0,0.474 C 66.041,-4.454 65.972,-4.515 65.891,-4.578 65.81,-4.642 65.717,-4.7 65.611,-4.753 65.506,-4.805 65.387,-4.849 65.256,-4.884 65.124,-4.919 64.979,-4.937 64.821,-4.937 m 2.969,3.561 0.816,0 0,-0.474 c 0.057,0.062 0.126,0.124 0.208,0.188 0.081,0.064 0.174,0.122 0.279,0.174 0.106,0.053 0.224,0.096 0.356,0.129 0.132,0.033 0.276,0.049 0.434,0.049 0.307,0 0.552,-0.089 0.734,-0.267 0.182,-0.177 0.273,-0.439 0.273,-0.786 l 0,-2.508 -0.816,0 0,2.304 c 0,0.377 -0.173,0.566 -0.52,0.566 -0.18,0 -0.345,-0.042 -0.497,-0.125 -0.151,-0.084 -0.302,-0.193 -0.451,-0.329 l 0,-2.416 -0.816,0 0,3.495 z m 5.128,-3.548 c -0.198,0 -0.381,0.036 -0.55,0.109 -0.169,0.072 -0.315,0.183 -0.438,0.332 -0.123,0.149 -0.219,0.336 -0.289,0.56 -0.07,0.224 -0.106,0.487 -0.106,0.79 0,0.302 0.037,0.568 0.109,0.796 0.072,0.228 0.173,0.418 0.303,0.57 0.129,0.151 0.286,0.265 0.471,0.342 0.184,0.077 0.388,0.115 0.612,0.115 0.188,0 0.371,-0.037 0.546,-0.112 0.176,-0.074 0.327,-0.184 0.454,-0.329 l 0,1.751 0.81,0 0,-4.015 c 0,-0.211 0.008,-0.384 0.023,-0.52 0.015,-0.137 0.043,-0.248 0.082,-0.336 l -0.836,0 c -0.022,0.048 -0.04,0.117 -0.056,0.207 -0.015,0.09 -0.023,0.179 -0.023,0.267 -0.127,-0.149 -0.278,-0.275 -0.454,-0.375 -0.175,-0.101 -0.395,-0.152 -0.658,-0.152 m 0.263,0.665 c 0.167,0 0.326,0.045 0.477,0.135 0.152,0.09 0.276,0.192 0.372,0.306 l 0,1.402 c -0.109,0.141 -0.238,0.248 -0.385,0.323 -0.147,0.074 -0.293,0.112 -0.438,0.112 -0.307,0 -0.527,-0.098 -0.661,-0.293 -0.134,-0.196 -0.201,-0.489 -0.201,-0.879 0,-0.373 0.074,-0.651 0.221,-0.833 0.147,-0.182 0.352,-0.273 0.615,-0.273 M 77.83,0 l 0.823,0 0,-1.942 2.212,0 0,1.942 0.822,0 0,-4.871 -0.822,0 0,2.165 -2.212,0 0,-2.165 -0.823,0 0,4.871 z m 6.339,-4.944 c -0.211,0 -0.418,0.035 -0.622,0.106 -0.204,0.07 -0.386,0.179 -0.546,0.326 -0.161,0.147 -0.29,0.334 -0.389,0.562 -0.099,0.229 -0.148,0.503 -0.148,0.823 0,0.325 0.048,0.601 0.145,0.83 0.096,0.228 0.225,0.415 0.385,0.562 0.16,0.147 0.342,0.255 0.546,0.323 0.204,0.068 0.414,0.102 0.629,0.102 0.211,0 0.418,-0.034 0.622,-0.102 0.204,-0.068 0.386,-0.176 0.546,-0.323 0.161,-0.147 0.29,-0.334 0.389,-0.562 0.099,-0.229 0.148,-0.505 0.148,-0.83 0,-0.32 -0.049,-0.594 -0.148,-0.823 -0.099,-0.228 -0.228,-0.415 -0.389,-0.562 -0.16,-0.147 -0.342,-0.256 -0.546,-0.326 -0.204,-0.071 -0.411,-0.106 -0.622,-0.106 m 0,0.678 c 0.294,0 0.516,0.1 0.665,0.3 0.149,0.2 0.224,0.479 0.224,0.839 0,0.163 -0.018,0.313 -0.053,0.451 -0.035,0.138 -0.089,0.257 -0.161,0.356 -0.073,0.098 -0.165,0.176 -0.277,0.233 -0.112,0.057 -0.244,0.086 -0.398,0.086 -0.294,0 -0.516,-0.099 -0.665,-0.296 -0.149,-0.198 -0.224,-0.474 -0.224,-0.83 0,-0.333 0.072,-0.607 0.214,-0.819 0.143,-0.213 0.368,-0.32 0.675,-0.32 M 86.585,0 l 0.816,0 0,-4.871 -0.816,0 0,4.871 z m 1.494,-4.404 1.863,2.383 -1.725,0 0,0.645 2.739,0 0,-0.487 -1.87,-2.383 1.982,0 0,-0.625 -2.989,0 0,0.467 z M 0,-7.976 l 0.836,0 2.304,-3.475 0.013,0 0,3.475 0.764,0 0,-4.871 -0.751,0 -2.389,3.548 -0.013,0 0,-3.548 -0.764,0 0,4.871 z m 6.398,-4.943 c -0.21,0 -0.418,0.035 -0.622,0.105 -0.204,0.07 -0.386,0.179 -0.546,0.326 -0.16,0.147 -0.29,0.334 -0.388,0.563 -0.099,0.228 -0.149,0.502 -0.149,0.823 0,0.324 0.049,0.601 0.145,0.829 0.097,0.228 0.225,0.416 0.385,0.563 0.16,0.147 0.343,0.254 0.547,0.322 0.204,0.068 0.413,0.102 0.628,0.102 0.211,0 0.418,-0.034 0.622,-0.102 0.204,-0.068 0.387,-0.175 0.547,-0.322 0.16,-0.147 0.289,-0.335 0.388,-0.563 0.099,-0.228 0.148,-0.505 0.148,-0.829 0,-0.321 -0.049,-0.595 -0.148,-0.823 -0.099,-0.229 -0.228,-0.416 -0.388,-0.563 -0.16,-0.147 -0.343,-0.256 -0.547,-0.326 -0.204,-0.07 -0.411,-0.105 -0.622,-0.105 m 0,0.678 c 0.294,0 0.516,0.1 0.665,0.299 0.149,0.2 0.224,0.48 0.224,0.84 0,0.162 -0.018,0.312 -0.053,0.45 -0.035,0.139 -0.088,0.257 -0.161,0.356 -0.072,0.099 -0.164,0.177 -0.276,0.234 -0.112,0.057 -0.245,0.085 -0.399,0.085 -0.294,0 -0.515,-0.099 -0.665,-0.296 -0.149,-0.198 -0.223,-0.474 -0.223,-0.829 0,-0.334 0.071,-0.607 0.214,-0.82 0.142,-0.213 0.367,-0.319 0.674,-0.319 m 2.383,2.89 0.81,0 0,-0.573 0.013,0 c 0.11,0.175 0.263,0.326 0.461,0.451 0.197,0.125 0.463,0.187 0.796,0.187 l 0.053,0 -0.026,-0.743 c -0.022,0.004 -0.058,0.007 -0.109,0.009 -0.05,0.003 -0.087,0.004 -0.109,0.004 -0.263,0 -0.48,-0.056 -0.651,-0.168 -0.171,-0.112 -0.314,-0.262 -0.428,-0.451 l 0,-2.212 -0.81,0 0,3.496 z m 3.706,-3.549 c -0.197,0 -0.381,0.037 -0.55,0.109 -0.169,0.072 -0.314,0.183 -0.437,0.333 -0.123,0.149 -0.22,0.335 -0.29,0.559 -0.07,0.224 -0.105,0.487 -0.105,0.79 0,0.303 0.036,0.568 0.108,0.796 0.073,0.229 0.174,0.418 0.303,0.57 0.13,0.151 0.286,0.265 0.471,0.342 0.184,0.077 0.388,0.115 0.612,0.115 0.189,0 0.371,-0.037 0.546,-0.112 0.176,-0.074 0.327,-0.184 0.455,-0.329 l 0,1.751 0.809,0 0,-4.015 c 0,-0.211 0.008,-0.384 0.023,-0.52 0.016,-0.136 0.043,-0.248 0.083,-0.336 l -0.836,0 c -0.022,0.048 -0.041,0.118 -0.056,0.207 -0.016,0.09 -0.023,0.179 -0.023,0.267 -0.128,-0.149 -0.279,-0.274 -0.455,-0.375 C 12.97,-12.849 12.75,-12.9 12.487,-12.9 m 0.263,0.665 c 0.167,0 0.326,0.045 0.478,0.135 0.151,0.09 0.275,0.192 0.372,0.306 l 0,1.403 c -0.11,0.14 -0.238,0.247 -0.385,0.322 -0.147,0.075 -0.293,0.112 -0.438,0.112 -0.307,0 -0.528,-0.098 -0.662,-0.293 -0.134,-0.195 -0.201,-0.488 -0.201,-0.879 0,-0.373 0.074,-0.65 0.221,-0.832 0.147,-0.183 0.352,-0.274 0.615,-0.274 m 2.535,2.884 0.809,0 0,-0.573 0.014,0 c 0.109,0.175 0.263,0.326 0.46,0.451 0.198,0.125 0.463,0.187 0.797,0.187 l 0.052,0 -0.026,-0.743 c -0.022,0.004 -0.058,0.007 -0.108,0.009 -0.051,0.003 -0.087,0.004 -0.109,0.004 -0.263,0 -0.481,-0.056 -0.652,-0.168 -0.171,-0.112 -0.314,-0.262 -0.428,-0.451 l 0,-2.212 -0.809,0 0,3.496 z m 2.679,1.375 0.816,0 0,-1.849 c 0.057,0.061 0.126,0.124 0.207,0.187 0.082,0.064 0.175,0.122 0.28,0.175 0.105,0.052 0.224,0.095 0.356,0.128 0.131,0.033 0.276,0.049 0.434,0.049 0.307,0 0.552,-0.089 0.734,-0.266 0.182,-0.178 0.273,-0.44 0.273,-0.787 l 0,-2.508 -0.816,0 0,2.304 c 0,0.377 -0.173,0.566 -0.52,0.566 -0.18,0 -0.346,-0.041 -0.497,-0.125 -0.151,-0.083 -0.302,-0.193 -0.451,-0.329 l 0,-2.416 -0.816,0 0,4.871 z m 5.424,-4.943 c -0.22,0 -0.43,0.034 -0.632,0.102 -0.202,0.068 -0.381,0.175 -0.537,0.322 -0.155,0.147 -0.281,0.336 -0.375,0.566 -0.094,0.231 -0.141,0.506 -0.141,0.827 0,0.333 0.052,0.615 0.158,0.845 0.105,0.231 0.239,0.418 0.401,0.563 0.162,0.145 0.342,0.249 0.54,0.313 0.197,0.064 0.386,0.095 0.566,0.095 0.198,0 0.388,-0.031 0.573,-0.095 0.184,-0.064 0.348,-0.169 0.49,-0.316 0.143,-0.147 0.257,-0.341 0.342,-0.583 0.086,-0.241 0.129,-0.539 0.129,-0.895 l 0,-0.191 -2.39,0 c 0.018,-0.316 0.113,-0.546 0.287,-0.691 0.173,-0.145 0.389,-0.217 0.648,-0.217 0.228,0 0.416,0.036 0.563,0.108 0.147,0.073 0.286,0.173 0.418,0.3 l 0.428,-0.421 c -0.185,-0.202 -0.396,-0.358 -0.635,-0.468 -0.24,-0.109 -0.517,-0.164 -0.833,-0.164 m 0.77,2.159 c -0.048,0.544 -0.314,0.816 -0.797,0.816 -0.096,0 -0.19,-0.014 -0.283,-0.043 -0.092,-0.028 -0.176,-0.075 -0.253,-0.141 -0.077,-0.066 -0.14,-0.151 -0.191,-0.254 -0.05,-0.103 -0.087,-0.229 -0.109,-0.378 l 1.633,0 z m 1.448,2.718 0.829,0 0,-0.704 -0.829,0 0,0.704 z m 0.007,-1.309 0.816,0 0,-3.495 -0.816,0 0,3.495 z m 1.724,0 0.817,0 0,-0.474 c 0.057,0.061 0.126,0.124 0.207,0.187 0.081,0.064 0.174,0.122 0.28,0.175 0.105,0.052 0.223,0.095 0.355,0.128 0.132,0.033 0.277,0.049 0.435,0.049 0.307,0 0.551,-0.089 0.734,-0.266 0.182,-0.178 0.273,-0.44 0.273,-0.787 l 0,-2.508 -0.817,0 0,2.304 c 0,0.377 -0.173,0.566 -0.52,0.566 -0.179,0 -0.345,-0.041 -0.497,-0.125 -0.151,-0.083 -0.301,-0.193 -0.45,-0.329 l 0,-2.416 -0.817,0 0,3.496 z m 3.844,-1.139 1.626,0 0,-0.579 -1.626,0 0,0.579 z m 1.751,2.514 0.83,0 0.619,-2.521 c 0.048,-0.197 0.094,-0.387 0.138,-0.569 0.044,-0.182 0.083,-0.37 0.118,-0.563 l 0.013,0 c 0.036,0.189 0.074,0.374 0.116,0.556 0.041,0.182 0.086,0.372 0.135,0.57 l 0.585,2.527 0.79,0 0.606,-2.541 c 0.026,-0.105 0.052,-0.203 0.076,-0.293 0.024,-0.089 0.046,-0.178 0.065,-0.266 0.02,-0.088 0.04,-0.177 0.06,-0.267 0.019,-0.09 0.038,-0.185 0.056,-0.286 l 0.013,0 c 0.017,0.105 0.035,0.202 0.053,0.29 0.017,0.087 0.036,0.174 0.055,0.26 0.02,0.085 0.041,0.171 0.063,0.256 0.022,0.086 0.044,0.181 0.066,0.287 l 0.605,2.56 0.771,0 -1.284,-4.871 -0.718,0 -0.875,3.733 -0.013,0 -0.922,-3.733 -0.724,0 -1.297,4.871 z" /></g><g
           transform="translate(766.3209,561.5248)"
           id="g3374"><path
             id="path3376"
             style="fill:#231f20;fill-opacity:1;fill-rule:nonzero;stroke:none"
             d="m 0,0 c -0.219,0 -0.43,0.034 -0.632,0.102 -0.202,0.068 -0.381,0.176 -0.536,0.323 -0.156,0.147 -0.281,0.335 -0.376,0.566 -0.094,0.23 -0.141,0.505 -0.141,0.826 0,0.333 0.052,0.615 0.158,0.846 0.105,0.23 0.239,0.418 0.401,0.563 0.163,0.144 0.343,0.249 0.54,0.312 0.198,0.064 0.386,0.096 0.566,0.096 0.198,0 0.389,-0.032 0.573,-0.096 C 0.737,3.475 0.901,3.369 1.043,3.222 1.186,3.075 1.3,2.881 1.386,2.64 1.471,2.398 1.514,2.1 1.514,1.744 l 0,-0.19 -2.389,0 C -0.858,1.237 -0.763,1.007 -0.589,0.862 -0.416,0.717 -0.2,0.645 0.059,0.645 c 0.228,0 0.416,0.036 0.563,0.109 0.147,0.072 0.286,0.172 0.418,0.299 L 1.468,0.632 C 1.284,0.43 1.072,0.274 0.833,0.165 0.594,0.055 0.316,0 0,0 M 0.77,2.159 C 0.722,2.703 0.456,2.975 -0.026,2.975 -0.123,2.975 -0.217,2.961 -0.309,2.933 -0.402,2.904 -0.486,2.857 -0.563,2.791 -0.64,2.725 -0.703,2.641 -0.754,2.538 -0.804,2.435 -0.84,2.308 -0.862,2.159 l 1.632,0 z M 3.403,0 C 3.078,0 2.78,0.052 2.508,0.155 2.236,0.258 2.021,0.391 1.863,0.553 L 2.304,1.047 C 2.435,0.932 2.596,0.835 2.784,0.754 2.973,0.672 3.179,0.632 3.403,0.632 c 0.22,0 0.391,0.031 0.514,0.092 0.122,0.062 0.184,0.165 0.184,0.309 0,0.071 -0.021,0.13 -0.063,0.178 C 3.997,1.259 3.941,1.301 3.871,1.336 3.8,1.371 3.718,1.401 3.624,1.425 3.529,1.449 3.429,1.474 3.324,1.501 3.175,1.536 3.022,1.575 2.867,1.619 2.711,1.663 2.569,1.725 2.442,1.804 2.315,1.883 2.211,1.986 2.129,2.113 2.048,2.24 2.008,2.405 2.008,2.607 2.008,2.76 2.039,2.9 2.103,3.025 2.167,3.15 2.256,3.257 2.37,3.347 2.484,3.437 2.62,3.507 2.778,3.558 2.936,3.608 3.111,3.634 3.304,3.634 3.638,3.634 3.916,3.59 4.137,3.502 4.359,3.414 4.56,3.294 4.74,3.14 L 4.351,2.613 C 4.285,2.666 4.212,2.715 4.131,2.761 4.049,2.807 3.965,2.848 3.877,2.883 3.789,2.918 3.702,2.946 3.614,2.966 3.526,2.985 3.443,2.995 3.364,2.995 3.14,2.995 2.985,2.961 2.9,2.893 2.814,2.825 2.771,2.741 2.771,2.64 2.771,2.569 2.792,2.51 2.834,2.462 2.875,2.414 2.93,2.372 2.998,2.337 3.066,2.302 3.146,2.272 3.239,2.248 3.331,2.224 3.429,2.201 3.535,2.179 3.684,2.148 3.838,2.111 3.996,2.067 4.154,2.023 4.296,1.963 4.423,1.886 4.551,1.809 4.656,1.707 4.74,1.58 4.823,1.453 4.865,1.286 4.865,1.08 4.865,0.895 4.826,0.735 4.749,0.599 4.672,0.463 4.567,0.351 4.433,0.263 4.299,0.175 4.144,0.11 3.966,0.066 3.788,0.022 3.601,0 3.403,0 M 6.826,0.026 C 6.602,0.026 6.42,0.047 6.28,0.089 6.139,0.13 6.029,0.191 5.951,0.27 5.872,0.349 5.818,0.449 5.789,0.569 5.761,0.69 5.746,0.829 5.746,0.987 l 0,1.936 -0.605,0 0,0.645 0.605,0 0,1.218 0.81,0 0,-1.218 0.902,0 0,-0.645 -0.902,0 0,-1.732 C 6.556,1.003 6.591,0.868 6.661,0.787 6.732,0.705 6.868,0.665 7.07,0.665 c 0.061,0 0.125,0.004 0.19,0.013 0.066,0.009 0.119,0.02 0.158,0.033 l 0,-0.639 C 7.397,0.068 7.364,0.063 7.32,0.056 7.276,0.049 7.225,0.044 7.168,0.039 7.111,0.035 7.053,0.032 6.994,0.03 6.935,0.027 6.879,0.026 6.826,0.026 m 1.567,2.897 -0.606,0 0,0.645 0.606,0 0,0.355 c 0,0.145 0.017,0.281 0.052,0.408 0.035,0.128 0.096,0.238 0.181,0.333 0.086,0.094 0.201,0.168 0.346,0.22 0.145,0.053 0.329,0.079 0.553,0.079 0.039,0 0.083,-0.001 0.131,-0.003 C 9.705,4.958 9.752,4.955 9.798,4.95 9.844,4.946 9.887,4.941 9.926,4.937 9.966,4.933 9.992,4.93 10.005,4.93 l 0,-0.625 C 9.979,4.314 9.938,4.32 9.884,4.325 9.829,4.329 9.777,4.331 9.729,4.331 9.659,4.331 9.591,4.325 9.525,4.312 9.459,4.299 9.403,4.275 9.357,4.243 9.311,4.21 9.274,4.164 9.245,4.104 9.216,4.045 9.202,3.969 9.202,3.877 l 0,-0.309 0.764,0 0,-0.645 -0.764,0 0,-2.851 -0.809,0 0,2.851 z M 11.151,0.02 c -0.141,0 -0.271,0.019 -0.392,0.059 -0.121,0.039 -0.225,0.096 -0.313,0.171 -0.087,0.075 -0.157,0.168 -0.207,0.28 -0.051,0.112 -0.076,0.24 -0.076,0.385 0,0.189 0.042,0.362 0.125,0.52 0.084,0.158 0.218,0.297 0.402,0.418 0.184,0.121 0.42,0.225 0.707,0.313 0.288,0.087 0.636,0.153 1.044,0.197 l 0,0.106 c 0,0.175 -0.046,0.302 -0.138,0.381 -0.093,0.079 -0.237,0.119 -0.435,0.119 -0.246,0 -0.466,-0.05 -0.661,-0.148 C 11.011,2.722 10.839,2.613 10.69,2.495 l -0.395,0.507 c 0.189,0.171 0.426,0.319 0.711,0.444 0.285,0.125 0.61,0.188 0.974,0.188 0.233,0 0.429,-0.028 0.589,-0.083 0.16,-0.054 0.29,-0.136 0.389,-0.243 0.098,-0.108 0.17,-0.239 0.214,-0.395 0.043,-0.156 0.065,-0.337 0.065,-0.543 l 0,-1.442 c 0,-0.211 0.008,-0.384 0.023,-0.52 0.016,-0.136 0.041,-0.248 0.076,-0.336 l -0.816,0 C 12.498,0.147 12.479,0.215 12.464,0.276 12.449,0.338 12.441,0.419 12.441,0.52 12.261,0.336 12.067,0.206 11.858,0.132 11.65,0.057 11.414,0.02 11.151,0.02 m 0.296,0.625 c 0.211,0 0.397,0.036 0.559,0.109 0.163,0.072 0.308,0.17 0.435,0.293 l 0,0.77 C 11.954,1.751 11.585,1.658 11.335,1.537 11.085,1.416 10.96,1.259 10.96,1.066 c 0,-0.14 0.044,-0.245 0.131,-0.316 0.088,-0.07 0.207,-0.105 0.356,-0.105 m 2.659,4.299 0.816,0 0,-4.871 -0.816,0 0,4.871 z M 17.318,0 c -0.219,0 -0.43,0.034 -0.632,0.102 -0.201,0.068 -0.38,0.176 -0.536,0.323 -0.156,0.147 -0.281,0.335 -0.375,0.566 -0.095,0.23 -0.142,0.505 -0.142,0.826 0,0.333 0.053,0.615 0.158,0.846 0.106,0.23 0.239,0.418 0.402,0.563 0.162,0.144 0.342,0.249 0.54,0.312 0.197,0.064 0.386,0.096 0.566,0.096 0.197,0 0.388,-0.032 0.572,-0.096 C 18.056,3.475 18.219,3.369 18.362,3.222 18.504,3.075 18.619,2.881 18.704,2.64 18.79,2.398 18.832,2.1 18.832,1.744 l 0,-0.19 -2.389,0 c 0.018,-0.317 0.113,-0.547 0.286,-0.692 0.174,-0.145 0.39,-0.217 0.649,-0.217 0.228,0 0.416,0.036 0.563,0.109 0.147,0.072 0.286,0.172 0.418,0.299 L 18.786,0.632 C 18.602,0.43 18.39,0.274 18.151,0.165 17.912,0.055 17.634,0 17.318,0 m 0.771,2.159 C 18.04,2.703 17.775,2.975 17.292,2.975 17.196,2.975 17.101,2.961 17.009,2.933 16.917,2.904 16.832,2.857 16.756,2.791 16.679,2.725 16.615,2.641 16.565,2.538 16.514,2.435 16.478,2.308 16.456,2.159 l 1.633,0 z m 1.421,1.409 0.817,0 0,-0.474 c 0.057,0.061 0.126,0.124 0.207,0.187 0.081,0.064 0.174,0.122 0.28,0.175 0.105,0.053 0.224,0.095 0.355,0.128 0.132,0.033 0.277,0.05 0.435,0.05 0.307,0 0.552,-0.089 0.734,-0.267 0.182,-0.178 0.273,-0.44 0.273,-0.787 l 0,-2.508 -0.816,0 0,2.304 c 0,0.378 -0.174,0.566 -0.52,0.566 -0.18,0 -0.346,-0.041 -0.497,-0.125 C 20.626,2.734 20.476,2.624 20.327,2.488 l 0,-2.416 -0.817,0 0,3.496 z" /></g><path
           id="path3378"
           style="fill:#231f20;fill-opacity:1;fill-rule:evenodd;stroke:none"
           d="m 830.848,575.311 27.99,0 0,-15.907 -27.99,0 0,15.907 z m 27.44,-16.43 c -0.072,-1.11 -0.284,-2.207 -0.629,-3.265 -0.173,-0.534 -0.374,-1.053 -0.61,-1.563 -0.344,-0.74 -0.765,-1.457 -1.236,-2.125 -0.445,-0.625 -0.951,-1.221 -1.495,-1.763 -0.52,-0.511 -1.087,-0.983 -1.678,-1.409 -1.004,-0.72 -2.105,-1.293 -3.267,-1.709 -0.667,-0.237 -1.344,-0.422 -2.04,-0.551 -0.734,-0.135 -1.47,-0.215 -2.217,-0.231 -0.494,-0.01 -0.99,0.007 -1.482,0.052 -1.419,0.128 -2.805,0.48 -4.114,1.041 -0.856,0.368 -1.674,0.83 -2.434,1.369 -0.792,0.568 -1.536,1.211 -2.19,1.935 -0.096,0.106 -0.19,0.214 -0.284,0.323 -0.886,1.034 -1.617,2.211 -2.151,3.464 -0.359,0.849 -0.637,1.726 -0.819,2.63 -0.119,0.596 -0.202,1.196 -0.244,1.802 -0.024,0.343 -0.028,0.694 -0.028,1.045 l 0,14.863 26.945,0 0,-14.863 c 0,-0.333 -0.004,-0.687 -0.027,-1.045 m 0.55,0.523 c -0.003,-0.206 -0.019,-0.419 -0.034,-0.624 -0.033,-0.476 -0.094,-0.943 -0.176,-1.417 -0.079,-0.459 -0.181,-0.917 -0.308,-1.374 -0.069,-0.247 -0.151,-0.497 -0.232,-0.743 -0.072,-0.218 -0.151,-0.431 -0.238,-0.65 -0.151,-0.378 -0.312,-0.746 -0.487,-1.095 -0.252,-0.501 -0.525,-0.967 -0.808,-1.407 -0.333,-0.519 -0.672,-0.966 -1.062,-1.423 -0.247,-0.288 -0.529,-0.601 -0.808,-0.877 -0.154,-0.153 -0.32,-0.303 -0.492,-0.458 -0.392,-0.353 -0.837,-0.711 -1.29,-1.035 -0.554,-0.395 -1.131,-0.742 -1.757,-1.059 -0.151,-0.077 -0.305,-0.153 -0.464,-0.227 -0.294,-0.135 -0.608,-0.265 -0.928,-0.385 -0.22,-0.082 -0.438,-0.158 -0.654,-0.228 -0.14,-0.045 -0.281,-0.089 -0.425,-0.13 -0.121,-0.034 -0.248,-0.066 -0.366,-0.097 -0.335,-0.087 -0.69,-0.161 -1.049,-0.223 -0.136,-0.024 -0.268,-0.046 -0.409,-0.067 -0.089,-0.013 -0.191,-0.027 -0.283,-0.038 -0.236,-0.029 -0.477,-0.053 -0.715,-0.07 -0.337,-0.025 -0.673,-0.037 -1.01,-0.037 -0.337,0 -0.673,0.012 -1.011,0.037 -0.238,0.017 -0.478,0.041 -0.715,0.07 -0.091,0.011 -0.193,0.025 -0.282,0.038 -0.142,0.021 -0.273,0.043 -0.409,0.067 -0.36,0.062 -0.714,0.136 -1.05,0.223 -0.117,0.031 -0.245,0.063 -0.365,0.097 -0.144,0.041 -0.286,0.085 -0.425,0.13 -0.216,0.07 -0.434,0.146 -0.654,0.228 -0.321,0.12 -0.634,0.25 -0.928,0.385 -0.159,0.074 -0.313,0.15 -0.465,0.227 -0.625,0.317 -1.202,0.664 -1.756,1.059 -0.454,0.324 -0.898,0.682 -1.29,1.035 -0.172,0.155 -0.339,0.305 -0.493,0.458 -0.278,0.276 -0.561,0.589 -0.807,0.877 -0.39,0.457 -0.729,0.904 -1.063,1.423 -0.282,0.44 -0.556,0.906 -0.807,1.407 -0.175,0.349 -0.336,0.717 -0.487,1.095 -0.087,0.219 -0.166,0.432 -0.238,0.65 -0.082,0.246 -0.164,0.496 -0.232,0.743 -0.127,0.457 -0.229,0.915 -0.308,1.374 -0.082,0.474 -0.143,0.941 -0.177,1.417 -0.014,0.205 -0.03,0.418 -0.033,0.624 l 27.99,0 z" /><g
           transform="translate(858.2875,558.8812)"
           id="g3380"><path
             id="path3382"
             style="fill:#ffffff;fill-opacity:1;fill-rule:evenodd;stroke:none"
             d="m 0,0 c -0.071,-1.11 -0.284,-2.207 -0.628,-3.265 -0.173,-0.534 -0.375,-1.053 -0.61,-1.563 -0.345,-0.741 -0.766,-1.457 -1.236,-2.125 -0.446,-0.625 -0.951,-1.221 -1.496,-1.763 -0.519,-0.511 -1.087,-0.983 -1.678,-1.409 -1.004,-0.72 -2.105,-1.293 -3.267,-1.709 -0.667,-0.238 -1.343,-0.423 -2.04,-0.552 -0.734,-0.135 -1.469,-0.214 -2.216,-0.23 -0.495,-0.01 -0.99,0.007 -1.483,0.052 -1.418,0.128 -2.805,0.48 -4.114,1.041 -0.855,0.368 -1.673,0.83 -2.433,1.368 -0.792,0.568 -1.536,1.212 -2.19,1.936 -0.096,0.106 -0.191,0.214 -0.284,0.322 -0.887,1.034 -1.617,2.211 -2.151,3.465 -0.36,0.849 -0.637,1.726 -0.819,2.63 -0.12,0.596 -0.202,1.196 -0.244,1.802 -0.024,0.343 -0.028,0.693 -0.028,1.045 l 0,14.862 26.945,0 0,-14.862 C 0.028,0.712 0.023,0.358 0,0" /></g><g
           transform="translate(844.4883,569.0881)"
           id="g3384"><path
             id="path3386"
             style="fill:#00a650;fill-opacity:1;fill-rule:evenodd;stroke:none"
             d="m 0,0 0,-9.181 c 0,-2.443 -0.593,-4.598 -1.664,-6.458 -1.067,-1.854 -2.509,-3.421 -4.549,-4.676 -0.009,0.005 -0.019,0.011 -0.027,0.016 -1.165,0.712 -2.205,1.593 -3.096,2.626 -0.552,0.639 -1.034,1.331 -1.444,2.064 0.516,0.502 1.023,1.078 1.45,1.67 0.239,0.332 0.448,0.635 0.634,1.008 0.325,0.649 0.605,1.341 0.784,1.922 0.116,0.375 0.252,0.777 0.373,1.101 0.228,0.607 0.454,1.105 0.722,1.524 0.391,0.613 0.833,1.057 1.35,1.424 0.266,0.189 0.634,0.421 0.914,0.578 0.488,0.275 0.893,0.518 1.269,0.784 0.241,0.171 0.45,0.371 0.653,0.541 0.406,0.341 0.958,1.237 1.343,2.146 0.217,0.511 0.448,1.12 0.654,1.624 C -0.45,-0.834 -0.224,-0.354 0,0 m -1.847,5.001 -10.581,0 0,-14.162 c 0.001,-0.352 0.005,-0.702 0.03,-1.052 0.022,-0.291 0.054,-0.581 0.094,-0.87 0.363,0.472 0.736,1.223 1.108,2.388 0.37,1.157 0.756,2.221 1.306,2.948 0.468,0.618 1.181,1.123 2.09,1.642 0.311,0.178 0.785,0.484 1.082,0.69 0.502,0.348 0.845,0.693 1.251,1.176 0.421,0.502 0.901,1.681 1.362,3.377 0.271,0.998 0.649,1.879 1.026,2.389 0.394,0.532 0.784,1.045 1.232,1.474" /></g><g
           transform="translate(851.409,548.7614)"
           id="g3388"><path
             id="path3390"
             style="fill:#ed1c24;fill-opacity:1;fill-rule:evenodd;stroke:none"
             d="M 0,0 C 0.597,0.375 1.163,0.784 1.703,1.239 2.461,1.883 3.13,2.602 3.722,3.401 5.148,5.346 6,7.661 6.183,10.066 c 0.024,0.356 0.032,0.711 0.033,1.068 l 0,14.194 -12.428,0 0,-14.182 c 0,-2.443 0.573,-4.598 1.644,-6.458 C -3.498,2.828 -2.05,1.257 0,0 m -2.967,17.28 -0.911,1.699 c -0.119,-0.004 -0.233,-0.018 -0.361,-0.074 -0.102,-0.045 -0.207,-0.117 -0.291,-0.26 -0.127,-0.214 -0.135,-0.511 0.013,-0.871 l -0.222,-0.225 0.346,-0.357 c -0.052,-0.102 -0.136,-0.239 -0.216,-0.363 -0.075,-0.115 -0.204,-0.26 -0.32,-0.362 -0.148,-0.132 -0.243,-0.191 -0.436,-0.276 -0.163,0.172 -0.265,0.449 -0.259,0.917 0.054,0.027 0.104,0.069 0.149,0.135 0.05,0.073 0.073,0.146 0.073,0.225 0.001,0.076 -0.014,0.134 -0.036,0.182 -0.031,0.069 -0.086,0.135 -0.168,0.19 0.054,0.152 0.119,0.301 0.178,0.409 0.047,0.087 0.105,0.19 0.159,0.285 0.051,0.09 0.098,0.176 0.143,0.251 0.028,0.048 0.052,0.098 0.074,0.139 0.051,0.096 0.086,0.175 0.129,0.278 0.012,0.028 0.051,0.138 0.062,0.166 0.06,0.16 0.108,0.332 0.14,0.516 l 0.723,0 1.706,-1.343 C -2.599,18.21 -2.834,17.808 -2.967,17.28 m -0.113,4.061 c 0.014,0.112 0.047,0.183 0.114,0.264 0.027,0.034 0.056,0.061 0.088,0.089 0.05,0.044 0.108,0.087 0.162,0.129 0.195,0.151 0.379,0.31 0.579,0.46 0.199,0.159 0.383,0.307 0.57,0.456 0.083,0.066 0.168,0.138 0.257,0.199 0.1,0.068 0.198,0.128 0.306,0.192 0.138,0.081 0.276,0.155 0.422,0.228 0.001,0.24 0.025,0.487 0.078,0.742 0.014,0.101 0.021,0.197 0.025,0.289 0.206,-0.104 0.377,-0.235 0.499,-0.414 C 0.127,23.819 0.191,23.656 0.192,23.491 0.193,23.409 0.18,23.331 0.157,23.26 0.144,23.22 0.126,23.181 0.111,23.147 c 0.036,-0.058 0.108,-0.082 0.183,-0.08 0.063,0.001 0.127,0.025 0.174,0.071 0.047,0.045 0.076,0.102 0.091,0.174 0.011,0.06 0.012,0.119 0.01,0.179 -0.002,0.073 -0.011,0.146 -0.024,0.219 -0.004,0.023 -0.01,0.046 -0.018,0.069 0.392,-0.056 0.784,-0.112 1.181,-0.149 0.267,-0.026 0.54,-0.031 0.817,-0.023 0.194,0.005 0.39,0.018 0.589,0.038 C 2.882,23.372 2.575,23.165 2.216,23.003 2.748,22.868 3.088,22.71 3.36,22.532 3.632,22.353 3.817,22.149 3.955,21.93 3.688,21.783 3.364,21.69 3.018,21.618 3.054,21.588 3.086,21.559 3.121,21.524 3.199,21.447 3.278,21.357 3.354,21.26 3.42,21.176 3.487,21.086 3.551,20.988 3.634,20.862 3.707,20.747 3.786,20.636 3.865,20.526 3.945,20.399 4.036,20.3 4.128,20.2 4.206,20.116 4.332,20.037 4.136,19.972 3.884,19.923 3.507,19.92 3.194,19.918 2.946,19.975 2.727,20.048 2.788,19.913 2.868,19.77 2.972,19.616 c 0.061,-0.09 0.12,-0.181 0.207,-0.28 0.067,-0.08 0.143,-0.157 0.23,-0.229 0.078,-0.065 0.16,-0.126 0.265,-0.183 C 3.579,18.878 3.469,18.833 3.348,18.787 3.219,18.738 3.074,18.687 2.918,18.638 2.808,18.604 2.694,18.571 2.571,18.538 2.421,18.497 2.25,18.46 2.073,18.424 2.105,18.363 2.144,18.299 2.191,18.229 2.254,18.138 2.333,18.036 2.437,17.92 2.498,17.853 2.566,17.784 2.662,17.715 2.272,17.694 1.927,17.608 1.625,17.475 1.607,17.283 1.596,17.115 1.599,16.966 1.605,16.639 1.651,16.349 1.734,16.089 1.825,15.806 1.951,15.523 2.132,15.237 2.203,15.125 2.277,15.013 2.363,14.899 2.487,14.736 2.637,14.563 2.804,14.386 3.047,14.206 3.272,14.019 3.492,13.819 3.576,13.743 3.658,13.66 3.734,13.581 3.854,13.456 3.963,13.331 4.058,13.2 4.258,12.926 4.374,12.676 4.432,12.418 4.457,12.305 4.469,12.207 4.472,12.083 4.477,11.854 4.43,11.608 4.337,11.352 4.288,11.215 4.209,11.051 4.155,10.948 4.101,10.845 4.067,10.795 4.031,10.736 3.995,10.678 3.974,10.641 3.944,10.596 3.838,10.432 3.732,10.288 3.625,10.154 3.625,9.956 3.635,9.756 3.658,9.554 3.691,9.264 3.764,8.99 3.872,8.729 3.924,8.603 3.979,8.479 4.036,8.358 4.11,8.2 4.187,8.046 4.267,7.896 4.159,7.649 4.056,7.408 3.972,7.189 3.871,6.927 3.776,6.667 3.698,6.414 3.62,6.158 3.558,5.902 3.513,5.646 3.471,5.415 3.453,5.19 3.449,4.969 3.357,4.972 3.275,4.933 3.219,4.872 3.168,4.816 3.139,4.736 3.139,4.66 L 3.137,4.148 C 2.586,3.975 2.023,3.97 1.671,4.126 1.674,4.403 1.829,4.683 2.137,4.966 2.185,4.96 2.232,4.96 2.276,4.968 2.38,4.986 2.47,5.039 2.53,5.118 2.58,5.183 2.62,5.269 2.624,5.372 2.626,5.433 2.613,5.496 2.585,5.558 L 2.794,5.944 C 2.854,6.06 2.909,6.173 2.959,6.277 3.117,6.603 3.204,6.867 3.246,7.114 3.287,7.357 3.257,7.578 3.175,7.791 3.137,7.889 3.072,7.999 2.993,8.11 2.861,8.297 2.606,8.552 2.403,8.728 2.185,8.918 1.975,9.103 1.756,9.274 1.674,9.338 1.602,9.396 1.546,9.461 1.493,9.521 1.452,9.587 1.414,9.65 1.347,9.762 1.26,9.988 1.228,10.103 c -0.111,0.392 -0.154,0.723 -0.183,1.048 -0.013,0.144 -0.021,0.286 -0.027,0.425 -0.005,0.136 -0.005,0.27 -0.003,0.402 -0.118,0.309 -0.302,0.56 -0.519,0.782 -0.241,0.248 -0.54,0.441 -0.849,0.62 -0.337,0.182 -0.653,0.357 -0.898,0.51 -0.437,0.272 -0.707,0.556 -0.897,0.849 -0.09,0.138 -0.141,0.246 -0.179,0.337 0.121,-0.009 0.257,-0.018 0.464,-0.027 l 0.367,-0.021 c 0.043,0 0.083,-0.004 0.128,0 0.137,0.013 0.277,0.058 0.4,0.126 0.103,0.058 0.198,0.135 0.278,0.231 0.036,0.044 0.074,0.089 0.098,0.143 0.036,0.08 0.033,0.155 0.012,0.218 -0.019,0.057 -0.053,0.105 -0.113,0.133 -0.019,0.009 -0.043,0.012 -0.067,0.014 -0.026,10e-4 -0.052,-0.003 -0.077,-0.01 -0.023,-0.058 -0.05,-0.113 -0.085,-0.165 -0.045,-0.066 -0.101,-0.128 -0.173,-0.181 -0.052,-0.037 -0.108,-0.065 -0.166,-0.085 -0.057,-0.02 -0.118,-0.034 -0.18,-0.033 -0.262,0.006 -0.517,0.026 -0.775,0.039 l -1.349,0.066 C -3.693,15.391 -3.808,15.25 -3.812,14.986 -3.815,14.77 -3.71,14.58 -3.514,14.418 -3.413,14.335 -3.3,14.264 -3.165,14.211 l 0,-0.315 0.493,0 c 0.052,-0.147 0.086,-0.297 0.108,-0.451 0.007,-0.048 0.013,-0.097 0.019,-0.146 0.007,-0.057 0.015,-0.143 0.014,-0.215 -0.005,-0.246 -0.051,-0.436 -0.117,-0.58 -0.183,-0.003 -0.365,0.092 -0.541,0.215 -0.118,0.082 -0.215,0.171 -0.298,0.254 0.017,0.186 0.007,0.284 -0.092,0.401 -0.075,0.089 -0.18,0.152 -0.334,0.153 -0.026,0 -0.052,-0.006 -0.079,-0.012 -0.077,0.089 -0.152,0.381 -0.235,0.72 -0.041,0.168 -0.091,0.335 -0.149,0.504 -0.092,0.268 -0.229,0.55 -0.42,0.838 l 0.458,0.554 1.685,0.568 c 0.012,0.373 0.099,0.722 0.274,1.043 0.172,0.314 0.418,0.609 0.719,0.887 0.154,0.143 0.343,0.308 0.55,0.486 0.07,0.059 0.138,0.119 0.205,0.179 0.19,0.168 0.369,0.339 0.522,0.526 0.237,0.288 0.343,0.534 0.401,0.759 0.237,-0.003 0.439,0.03 0.592,0.119 0.143,0.083 0.276,0.2 0.394,0.409 0.025,0.044 0.046,0.081 0.057,0.119 C 1.08,21.297 1.078,21.37 1.039,21.44 1.017,21.48 0.982,21.507 0.94,21.523 0.888,21.544 0.831,21.541 0.767,21.53 0.684,21.288 0.582,21.143 0.46,21.061 0.383,21.008 0.297,20.982 0.204,20.971 0.116,20.968 0.029,20.966 -0.056,20.966 c -0.149,10e-4 -0.293,0.007 -0.434,0.014 -0.23,0.01 -0.424,0.014 -0.561,0.006 -0.202,-0.01 -0.344,-0.055 -0.414,-0.134 -0.035,-0.039 -0.065,-0.112 -0.099,-0.2 -0.029,-0.077 -0.085,-0.133 -0.149,-0.176 -0.094,-0.064 -0.209,-0.085 -0.329,-0.084 -0.194,0.002 -0.36,0.056 -0.519,0.115 0.068,0.049 0.136,0.098 0.205,0.147 0.094,-0.003 0.168,0.002 0.257,0.054 0.052,0.03 0.086,0.077 0.086,0.133 0,0.047 -0.028,0.088 -0.072,0.121 -0.059,0.044 -0.132,0.068 -0.215,0.068 -0.082,10e-4 -0.151,-0.02 -0.206,-0.055 -0.061,-0.038 -0.091,-0.083 -0.088,-0.154 l -0.19,-0.139 c -0.227,-0.003 -0.301,0.159 -0.3,0.286 0.077,0.009 0.134,0.046 0.163,0.122 0.007,0.02 0.008,0.041 0.009,0.065 10e-4,0.032 -0.008,0.066 -0.027,0.103 -0.014,0.025 -0.034,0.044 -0.066,0.065 -0.019,0.013 -0.046,0.018 -0.075,0.018 m 1.665,0.938 c 0.035,0.19 0.118,0.25 0.225,0.249 0.044,0 0.089,-0.014 0.139,-0.033 0.048,-0.019 0.092,-0.042 0.133,-0.07 0.041,-0.027 0.08,-0.055 0.119,-0.085 l 0.074,-0.064 c -0.09,-0.057 -0.186,-0.098 -0.286,-0.126 -0.048,-0.014 -0.099,-0.019 -0.145,-0.018 -0.134,0.002 -0.21,0.064 -0.259,0.147 M 4.347,17.27 C 4.318,17.331 4.284,17.392 4.228,17.453 4.16,17.527 4.085,17.576 4.008,17.616 3.875,17.685 3.743,17.709 3.611,17.711 3.426,17.714 3.279,17.664 3.164,17.579 3.329,17.516 3.453,17.391 3.538,17.215 3.573,17.143 3.59,17.069 3.595,16.995 3.6,16.91 3.585,16.832 3.563,16.759 3.539,16.685 3.51,16.606 3.476,16.524 3.425,16.398 3.36,16.266 3.3,16.131 3.172,15.843 3.108,15.593 3.091,15.373 3.079,15.212 3.093,15.06 3.133,14.916 3.164,14.78 3.239,14.643 3.323,14.534 3.36,14.484 3.404,14.436 3.452,14.388 3.549,14.289 3.7,14.17 3.911,14.043 3.987,13.998 4.06,13.958 4.131,13.917 4.227,13.862 4.319,13.812 4.404,13.76 4.468,13.722 4.529,13.685 4.587,13.644 4.823,13.48 4.956,13.294 4.954,13.074 4.952,12.889 4.873,12.781 4.722,12.727 c 0.07,-0.022 0.152,-0.044 0.282,-0.044 0.129,0 0.247,0.033 0.344,0.094 0.141,0.088 0.248,0.22 0.294,0.415 0.022,0.09 0.031,0.185 0.029,0.284 -0.002,0.092 -0.015,0.185 -0.042,0.277 -0.051,0.179 -0.164,0.357 -0.281,0.536 -0.124,0.179 -0.222,0.341 -0.285,0.467 -0.081,0.165 -0.116,0.336 -0.119,0.512 -0.001,0.087 0.027,0.204 0.045,0.255 0.059,0.169 0.182,0.358 0.322,0.553 0.054,0.076 0.102,0.15 0.145,0.221 0.066,0.11 0.119,0.214 0.156,0.314 0.063,0.176 0.085,0.335 0.085,0.476 0,0.169 -0.026,0.337 -0.089,0.505 C 5.532,17.798 5.416,17.96 5.282,18.101 5.131,18.26 4.952,18.384 4.756,18.485 4.65,18.54 4.545,18.584 4.442,18.624 4.477,18.504 4.508,18.381 4.513,18.23 4.523,17.954 4.483,17.693 4.407,17.443 4.386,17.373 4.367,17.319 4.347,17.27 m -6.302,-9.744 -0.339,0 0,-0.49 C -2.805,6.856 -3.309,6.84 -3.697,7.01 c 0.004,0.273 0.166,0.556 0.472,0.847 0.03,-0.007 0.076,-0.015 0.136,-0.014 0.074,0.002 0.147,0.017 0.229,0.069 0.067,0.043 0.12,0.111 0.159,0.201 0.03,0.071 0.033,0.145 0.018,0.218 l 2.426,0.002 c -0.001,0.186 -0.021,0.385 -0.091,0.622 -0.048,0.164 -0.1,0.3 -0.152,0.431 -0.06,0.147 -0.122,0.288 -0.181,0.426 -0.073,0.17 -0.124,0.317 -0.17,0.456 -0.046,0.146 -0.077,0.278 -0.102,0.408 -0.023,0.122 -0.031,0.216 -0.039,0.312 -0.011,0.145 -0.004,0.286 0.008,0.425 0.014,0.167 0.051,0.305 0.099,0.43 0.068,0.176 0.162,0.304 0.271,0.41 0.175,0.173 0.416,0.299 0.718,0.383 0.164,-0.149 0.309,-0.328 0.43,-0.539 0.036,-0.063 0.069,-0.127 0.097,-0.193 -0.001,-0.059 -0.001,-0.119 0,-0.185 0.002,-0.101 0.01,-0.202 0.016,-0.304 0.008,-0.138 0.02,-0.277 0.04,-0.418 0.021,-0.175 0.051,-0.351 0.092,-0.528 0.034,-0.148 0.077,-0.298 0.13,-0.455 C 0.946,9.904 0.994,9.788 1.05,9.671 0.931,9.569 0.815,9.389 0.704,9.096 0.645,8.94 0.604,8.777 0.574,8.611 0.546,8.458 0.53,8.304 0.517,8.15 0.506,8.008 0.502,7.861 0.5,7.712 0.211,7.724 -0.071,7.73 -0.348,7.729 -0.671,7.728 -0.988,7.719 -1.289,7.693 -1.509,7.673 -1.703,7.644 -1.825,7.599 -1.882,7.578 -1.923,7.555 -1.955,7.526" /></g><g
           transform="translate(842.9683,549.54)"
           id="g3392"><path
             id="path3394"
             style="fill:#ed1c24;fill-opacity:1;fill-rule:evenodd;stroke:none"
             d="m 0,0 c -0.295,-0.048 -0.469,0.09 -0.586,0.304 -0.126,0.232 -0.16,0.579 -0.039,0.965 0.121,0.386 0.347,0.65 0.584,0.768 C 0.182,2.149 0.411,2.156 0.63,1.933 0.663,1.909 0.738,1.932 0.784,1.966 0.829,2 0.867,2.061 0.862,2.099 0.714,2.374 0.796,2.589 0.969,2.768 1.153,2.959 1.473,3.095 1.878,3.096 2.283,3.096 2.603,2.96 2.787,2.769 2.96,2.59 3.039,2.376 2.891,2.101 2.887,2.064 2.924,2.002 2.969,1.969 3.015,1.935 3.09,1.912 3.123,1.935 3.341,2.159 3.567,2.149 3.79,2.037 4.027,1.919 4.253,1.655 4.374,1.269 4.495,0.883 4.461,0.536 4.335,0.304 4.219,0.092 4.047,-0.046 3.757,-0.002 3.714,-0.01 3.668,-0.064 3.651,-0.118 3.633,-0.17 3.636,-0.24 3.661,-0.269 3.941,-0.405 4.002,-0.625 3.966,-0.872 3.928,-1.134 3.748,-1.431 3.419,-1.667 3.09,-1.903 2.751,-1.979 2.49,-1.932 2.249,-1.888 2.062,-1.764 2.017,-1.464 1.978,-1.426 1.931,-1.407 1.878,-1.406 1.822,-1.404 1.776,-1.425 1.739,-1.463 1.694,-1.763 1.507,-1.887 1.265,-1.931 c -0.26,-0.047 -0.6,0.029 -0.928,0.265 -0.329,0.236 -0.509,0.533 -0.548,0.796 -0.035,0.246 0.025,0.466 0.305,0.603 0.026,0.03 0.028,0.1 0.011,0.152 C 0.087,-0.061 0.042,-0.006 0,0 m 1.875,1.812 c -0.746,0 -1.353,-0.608 -1.353,-1.353 0,-0.745 0.607,-1.352 1.353,-1.352 0.745,0 1.352,0.607 1.352,1.352 0,0.745 -0.607,1.353 -1.352,1.353" /></g><g
           transform="translate(844.8428,550.8623)"
           id="g3396"><path
             id="path3398"
             style="fill:#00a650;fill-opacity:1;fill-rule:evenodd;stroke:none"
             d="m 0,0 c -0.477,0 -0.863,-0.386 -0.863,-0.863 0,-0.477 0.386,-0.863 0.863,-0.863 0.477,0 0.863,0.386 0.863,0.863 C 0.863,-0.386 0.477,0 0,0" /></g><g
           transform="translate(844.8428,546.7338)"
           id="g3400"><path
             id="path3402"
             style="fill:#00a650;fill-opacity:1;fill-rule:evenodd;stroke:none"
             d="m 0,0 c -0.216,0.128 -0.375,0.282 -0.479,0.449 -0.017,0.027 -0.037,0.057 -0.05,0.085 0.036,0.005 0.073,0.01 0.107,0.018 C -0.256,0.593 -0.113,0.676 0,0.816 0.113,0.676 0.256,0.593 0.422,0.552 0.456,0.544 0.493,0.539 0.529,0.534 0.515,0.506 0.496,0.476 0.479,0.449 0.375,0.282 0.216,0.128 0,0" /></g><g
           transform="translate(841.7333,548.9929)"
           id="g3404"><path
             id="path3406"
             style="fill:#00a650;fill-opacity:1;fill-rule:evenodd;stroke:none"
             d="M 0,0 C 0.055,0.245 0.152,0.444 0.279,0.594 0.3,0.619 0.322,0.646 0.344,0.668 0.36,0.635 0.376,0.602 0.395,0.572 0.485,0.427 0.608,0.316 0.776,0.252 0.678,0.101 0.643,-0.061 0.655,-0.231 0.658,-0.266 0.665,-0.303 0.671,-0.339 0.64,-0.334 0.606,-0.325 0.575,-0.317 0.384,-0.27 0.189,-0.166 0,0" /></g><g
           transform="translate(842.9147,552.6442)"
           id="g3408"><path
             id="path3410"
             style="fill:#00a650;fill-opacity:1;fill-rule:evenodd;stroke:none"
             d="M 0,0 C 0.25,0.024 0.469,-0.005 0.652,-0.079 0.682,-0.091 0.715,-0.103 0.742,-0.117 0.716,-0.143 0.689,-0.169 0.667,-0.196 0.557,-0.327 0.491,-0.478 0.482,-0.658 0.309,-0.612 0.144,-0.63 -0.014,-0.695 c -0.032,-0.013 -0.065,-0.031 -0.097,-0.048 -0.006,0.03 -0.008,0.066 -0.01,0.098 C -0.136,-0.449 -0.098,-0.231 0,0" /></g><g
           transform="translate(846.759,552.6442)"
           id="g3412"><path
             id="path3414"
             style="fill:#00a650;fill-opacity:1;fill-rule:evenodd;stroke:none"
             d="m 0,0 c -0.25,0.024 -0.469,-0.005 -0.652,-0.079 -0.03,-0.012 -0.063,-0.024 -0.09,-0.038 0.026,-0.026 0.053,-0.052 0.075,-0.079 0.11,-0.131 0.176,-0.282 0.185,-0.462 0.173,0.046 0.338,0.028 0.496,-0.037 0.032,-0.013 0.065,-0.031 0.097,-0.048 0.006,0.03 0.008,0.066 0.01,0.098 C 0.136,-0.449 0.098,-0.231 0,0" /></g><g
           transform="translate(847.9443,548.9929)"
           id="g3416"><path
             id="path3418"
             style="fill:#00a650;fill-opacity:1;fill-rule:evenodd;stroke:none"
             d="M 0,0 C -0.055,0.245 -0.152,0.444 -0.279,0.594 -0.3,0.619 -0.322,0.646 -0.344,0.668 -0.36,0.635 -0.376,0.602 -0.395,0.572 -0.485,0.427 -0.608,0.316 -0.776,0.252 c 0.098,-0.151 0.133,-0.313 0.121,-0.483 -0.003,-0.035 -0.01,-0.072 -0.016,-0.108 0.031,0.005 0.065,0.014 0.096,0.022 C -0.384,-0.27 -0.189,-0.166 0,0" /></g></g></g></g></svg>