<?xml version="1.0" encoding="utf-8"?>
<!-- Generator: Adobe Illustrator 25.0.1, SVG Export Plug-In . SVG Version: 6.00 Build 0)  -->
<svg version="1.1" id="Capa_1" xmlns="http://www.w3.org/2000/svg" xmlns:xlink="http://www.w3.org/1999/xlink" x="0px" y="0px"
	 viewBox="0 0 489.4 489.4" style="enable-background:new 0 0 489.4 489.4;" xml:space="preserve">
<style type="text/css">
	.st0{fill:none;}
</style>
<g>
	<path class="st0" d="M76.5,427.2c0,12.3,10.2,21.4,22.4,21.4h293.7c-7.1-10.2-9-27.8,0-42.8H98.9C86.7,405.8,76.5,415,76.5,427.2z"
		/>
	<path class="st0" d="M76.6,77.5v291.7c7-2.7,14.5-4.2,22.4-4.2h314h0.1V40.8H114.3C93.9,40.8,76.6,57.1,76.6,77.5z"/>
	<path d="M439.9,461.9c-11.5-7.4-18.5-19.8-18.8-33.2c-0.3-12.2,5.3-23.6,14.8-30.6l0,0c3.7-3.6,7.2-7.6,7-12.1l-0.1-1.8l0.1-0.5
		c0.4-18.6,0.6-243.9,0.6-363.3c0-5.6-4.8-10.4-10.4-10.4H114.2c-18.5,0-35.8,7-48.6,19.8C52.8,42.5,45.7,59.4,45.7,77.5v349.7
		c0,14,5.5,27.1,15.6,37c10,9.8,23.4,15.2,37.6,15.2h333.4c4.4,0,8.5-2.8,10-6.8C443.5,469.4,443.6,464.7,439.9,461.9z M392.6,458.6
		H98.9c-18.2,0-32.4-13.8-32.4-31.4c0-17.3,14.5-31.4,32.4-31.4h293.7h17.7l-9.1,15.1c-6.9,11.4-5.4,24.7-0.4,31.9l10.9,15.7
		L392.6,458.6L392.6,458.6z M413,375H99c-6.4,0-12.7,1.2-18.8,3.5l-13.6,5.2v-14.6V77.5c0-25.8,21.4-46.7,47.7-46.7h298.8h10v10V365
		v10H413L413,375z"/>
</g>
<g>
	<path d="M123.2,257.7v60.1c0,5.6,4.4,10.2,9.8,10.2h12.8h0v-93.7h0C133.4,234.3,123.2,244.8,123.2,257.7z"/>
	<path d="M343.8,234.3V328h12.8c5.4,0,9.8-4.6,9.8-10.2v-60.1C366.5,244.8,356.3,234.3,343.8,234.3z"/>
	<path d="M137.4,154.1h3.6c-0.7-2.9-1.1-5.8-1.1-8.9v-40c0-3.1,0.4-6.1,1.1-8.9h-3.6c-6.8,0-12.3,5.7-12.3,12.7v32.5
		C125.2,148.4,130.7,154.1,137.4,154.1z"/>
	<path d="M316,82H174.9c-12.4,0-22.4,10.4-22.4,23.2v40c0,12.8,10.1,23.2,22.4,23.2h16.9V148c0-3.6,2.8-6.5,6.3-6.5s6.3,2.9,6.3,6.5
		v20.3h82.3V148c0-3.6,2.8-6.5,6.3-6.5c3.5,0,6.3,2.9,6.3,6.5v20.3H316c12.4,0,22.4-10.4,22.4-23.2v-40C338.4,92.4,328.4,82,316,82z
		"/>
	<rect x="184.2" y="262" width="122.5" height="53.5"/>
	<path d="M299.1,181.2v12.5c0,3.6-2.8,6.5-6.3,6.5c-3.5,0-6.3-2.9-6.3-6.5v-12.5h-82.3v12.5c0,3.6-2.8,6.5-6.3,6.5s-6.3-2.9-6.3-6.5
		v-12.5h-16.9c-6.9,0-13.4-2.1-18.9-5.7v158.6c0,8.1,6.4,14.7,14.2,14.7h150.4c7.8,0,14.2-6.6,14.2-14.7V175.5
		c-5.4,3.6-11.9,5.7-18.9,5.7L299.1,181.2L299.1,181.2z M319.2,255.5V322c0,3.6-2.8,6.5-6.3,6.5h-135c-3.5,0-6.3-2.9-6.3-6.5v-66.5
		c0-3.6,2.8-6.5,6.3-6.5h135C316.4,249.1,319.2,252,319.2,255.5z"/>
	<path d="M349.9,154.1h3.6c6.8,0,12.3-5.7,12.3-12.7v-32.5c0-7-5.5-12.7-12.3-12.7h-3.6c0.7,2.9,1.1,5.8,1.1,8.9v40
		C351,148.2,350.6,151.2,349.9,154.1z"/>
</g>
</svg>
